<svg width="22" height="25" viewBox="0 0 22 25" fill="none" xmlns="http://www.w3.org/2000/svg">
<path d="M4.27728 16.2685C4.27728 16.6864 4.62513 17.0303 5.04777 17.0303H16.5715C16.9941 17.0303 17.342 16.6864 17.342 16.2685C17.342 15.8506 16.9941 15.5067 16.5715 15.5067H5.04777C4.62139 15.5067 4.27728 15.8506 4.27728 16.2685ZM16.5715 19.3639H5.04777C4.62513 19.3639 4.27728 19.7078 4.27728 20.1257C4.27728 20.5436 4.62513 20.8876 5.04777 20.8876H16.5715C16.9941 20.8876 17.342 20.5436 17.342 20.1257C17.342 19.7078 16.9941 19.3639 16.5715 19.3639Z" />
<path d="M13.5046 0H2.01825C1.16921 0 0.477264 0.684171 0.477264 1.52367V23.4763C0.477264 24.3158 1.16921 25 2.01825 25H19.5189C20.3679 25 21.0599 24.3158 21.0599 23.4763V7.47041L13.5046 0ZM14.5069 3.14719L18.0564 6.65681H14.7725C14.6304 6.65681 14.5069 6.53476 14.5069 6.39423V3.14719ZM19.5151 23.4726L2.01825 23.4763C2.01825 23.4763 2.01451 23.4763 2.01451 23.4726V1.52737C2.01451 1.52737 2.01451 1.52367 2.01825 1.52367H12.9024L12.9622 1.58284V6.39053C12.9622 7.37426 13.7776 8.17678 14.7688 8.17678H19.5151V23.4726Z" />
<path d="M7.72953 8.04733C9.08724 8.04733 10.1869 6.96006 10.1869 5.6176C10.1869 4.27514 9.08724 3.18787 7.72953 3.18787C6.37182 3.18787 5.26845 4.27145 5.26845 5.6176C5.26845 6.96006 6.36808 8.04733 7.72953 8.04733ZM7.72953 4.51923C8.34293 4.51923 8.84039 5.01109 8.84039 5.6176C8.84039 6.22411 8.34293 6.71597 7.72953 6.71597C7.11613 6.71597 6.61868 6.22411 6.61868 5.6176C6.61868 5.01109 7.11613 4.51923 7.72953 4.51923ZM5.04777 12.2374C5.47416 12.2374 5.81827 11.8972 5.81827 11.4756C5.81827 10.6509 6.69348 9.95192 7.72953 9.95192C8.76558 9.95192 9.6408 10.6472 9.6408 11.4756C9.6408 11.8972 9.9849 12.2374 10.4113 12.2374C10.8377 12.2374 11.1818 11.8972 11.1818 11.4756C11.1818 9.79659 9.63332 8.42825 7.72953 8.42825C5.82575 8.42825 4.27728 9.79659 4.27728 11.4756C4.27728 11.8972 4.62139 12.2374 5.04777 12.2374Z" />
</svg>
