<?xml version="1.0" standalone="yes"?>
<svg xmlns="http://www.w3.org/2000/svg" version="1.1" viewBox="0 0 256 256">
  <path x="0" y="0" d="M0,0 V8.83 H8.83 V0 H0 Z M8.83,0 V8.83 H17.66 V0 H8.83 Z M17.66,0 V8.83 H26.48 V0 H17.66 Z M26.48,0 V8.83 H35.31 V0 H26.48 Z M35.31,0 V8.83 H44.14 V0 H35.31 Z M44.14,0 V8.83 H52.97 V0 H44.14 Z M52.97,0 V8.83 H61.79 V0 H52.97 Z M70.62,0 V8.83 H79.45 V0 H70.62 Z M105.93,0 V8.83 H114.76 V0 H105.93 Z M114.76,0 V8.83 H123.59 V0 H114.76 Z M132.41,0 V8.83 H141.24 V0 H132.41 Z M141.24,0 V8.83 H150.07 V0 H141.24 Z M158.90,0 V8.83 H167.72 V0 H158.90 Z M194.21,0 V8.83 H203.03 V0 H194.21 Z M203.03,0 V8.83 H211.86 V0 H203.03 Z M211.86,0 V8.83 H220.69 V0 H211.86 Z M220.69,0 V8.83 H229.52 V0 H220.69 Z M229.52,0 V8.83 H238.34 V0 H229.52 Z M238.34,0 V8.83 H247.17 V0 H238.34 Z M247.17,0 V8.83 H256.00 V0 H247.17 Z M0,8.83 V17.66 H8.83 V8.83 H0 Z M52.97,8.83 V17.66 H61.79 V8.83 H52.97 Z M88.28,8.83 V17.66 H97.10 V8.83 H88.28 Z M97.10,8.83 V17.66 H105.93 V8.83 H97.10 Z M123.59,8.83 V17.66 H132.41 V8.83 H123.59 Z M141.24,8.83 V17.66 H150.07 V8.83 H141.24 Z M176.55,8.83 V17.66 H185.38 V8.83 H176.55 Z M194.21,8.83 V17.66 H203.03 V8.83 H194.21 Z M247.17,8.83 V17.66 H256.00 V8.83 H247.17 Z M0,17.66 V26.48 H8.83 V17.66 H0 Z M17.66,17.66 V26.48 H26.48 V17.66 H17.66 Z M26.48,17.66 V26.48 H35.31 V17.66 H26.48 Z M35.31,17.66 V26.48 H44.14 V17.66 H35.31 Z M52.97,17.66 V26.48 H61.79 V17.66 H52.97 Z M70.62,17.66 V26.48 H79.45 V17.66 H70.62 Z M114.76,17.66 V26.48 H123.59 V17.66 H114.76 Z M123.59,17.66 V26.48 H132.41 V17.66 H123.59 Z M150.07,17.66 V26.48 H158.90 V17.66 H150.07 Z M158.90,17.66 V26.48 H167.72 V17.66 H158.90 Z M167.72,17.66 V26.48 H176.55 V17.66 H167.72 Z M194.21,17.66 V26.48 H203.03 V17.66 H194.21 Z M211.86,17.66 V26.48 H220.69 V17.66 H211.86 Z M220.69,17.66 V26.48 H229.52 V17.66 H220.69 Z M229.52,17.66 V26.48 H238.34 V17.66 H229.52 Z M247.17,17.66 V26.48 H256.00 V17.66 H247.17 Z M0,26.48 V35.31 H8.83 V26.48 H0 Z M17.66,26.48 V35.31 H26.48 V26.48 H17.66 Z M26.48,26.48 V35.31 H35.31 V26.48 H26.48 Z M35.31,26.48 V35.31 H44.14 V26.48 H35.31 Z M52.97,26.48 V35.31 H61.79 V26.48 H52.97 Z M70.62,26.48 V35.31 H79.45 V26.48 H70.62 Z M97.10,26.48 V35.31 H105.93 V26.48 H97.10 Z M105.93,26.48 V35.31 H114.76 V26.48 H105.93 Z M132.41,26.48 V35.31 H141.24 V26.48 H132.41 Z M141.24,26.48 V35.31 H150.07 V26.48 H141.24 Z M158.90,26.48 V35.31 H167.72 V26.48 H158.90 Z M194.21,26.48 V35.31 H203.03 V26.48 H194.21 Z M211.86,26.48 V35.31 H220.69 V26.48 H211.86 Z M220.69,26.48 V35.31 H229.52 V26.48 H220.69 Z M229.52,26.48 V35.31 H238.34 V26.48 H229.52 Z M247.17,26.48 V35.31 H256.00 V26.48 H247.17 Z M0,35.31 V44.14 H8.83 V35.31 H0 Z M17.66,35.31 V44.14 H26.48 V35.31 H17.66 Z M26.48,35.31 V44.14 H35.31 V35.31 H26.48 Z M35.31,35.31 V44.14 H44.14 V35.31 H35.31 Z M52.97,35.31 V44.14 H61.79 V35.31 H52.97 Z M79.45,35.31 V44.14 H88.28 V35.31 H79.45 Z M88.28,35.31 V44.14 H97.10 V35.31 H88.28 Z M97.10,35.31 V44.14 H105.93 V35.31 H97.10 Z M132.41,35.31 V44.14 H141.24 V35.31 H132.41 Z M141.24,35.31 V44.14 H150.07 V35.31 H141.24 Z M150.07,35.31 V44.14 H158.90 V35.31 H150.07 Z M194.21,35.31 V44.14 H203.03 V35.31 H194.21 Z M211.86,35.31 V44.14 H220.69 V35.31 H211.86 Z M220.69,35.31 V44.14 H229.52 V35.31 H220.69 Z M229.52,35.31 V44.14 H238.34 V35.31 H229.52 Z M247.17,35.31 V44.14 H256.00 V35.31 H247.17 Z M0,44.14 V52.97 H8.83 V44.14 H0 Z M52.97,44.14 V52.97 H61.79 V44.14 H52.97 Z M70.62,44.14 V52.97 H79.45 V44.14 H70.62 Z M79.45,44.14 V52.97 H88.28 V44.14 H79.45 Z M105.93,44.14 V52.97 H114.76 V44.14 H105.93 Z M141.24,44.14 V52.97 H150.07 V44.14 H141.24 Z M150.07,44.14 V52.97 H158.90 V44.14 H150.07 Z M158.90,44.14 V52.97 H167.72 V44.14 H158.90 Z M176.55,44.14 V52.97 H185.38 V44.14 H176.55 Z M194.21,44.14 V52.97 H203.03 V44.14 H194.21 Z M247.17,44.14 V52.97 H256.00 V44.14 H247.17 Z M0,52.97 V61.79 H8.83 V52.97 H0 Z M8.83,52.97 V61.79 H17.66 V52.97 H8.83 Z M17.66,52.97 V61.79 H26.48 V52.97 H17.66 Z M26.48,52.97 V61.79 H35.31 V52.97 H26.48 Z M35.31,52.97 V61.79 H44.14 V52.97 H35.31 Z M44.14,52.97 V61.79 H52.97 V52.97 H44.14 Z M52.97,52.97 V61.79 H61.79 V52.97 H52.97 Z M70.62,52.97 V61.79 H79.45 V52.97 H70.62 Z M88.28,52.97 V61.79 H97.10 V52.97 H88.28 Z M105.93,52.97 V61.79 H114.76 V52.97 H105.93 Z M123.59,52.97 V61.79 H132.41 V52.97 H123.59 Z M141.24,52.97 V61.79 H150.07 V52.97 H141.24 Z M158.90,52.97 V61.79 H167.72 V52.97 H158.90 Z M176.55,52.97 V61.79 H185.38 V52.97 H176.55 Z M194.21,52.97 V61.79 H203.03 V52.97 H194.21 Z M203.03,52.97 V61.79 H211.86 V52.97 H203.03 Z M211.86,52.97 V61.79 H220.69 V52.97 H211.86 Z M220.69,52.97 V61.79 H229.52 V52.97 H220.69 Z M229.52,52.97 V61.79 H238.34 V52.97 H229.52 Z M238.34,52.97 V61.79 H247.17 V52.97 H238.34 Z M247.17,52.97 V61.79 H256.00 V52.97 H247.17 Z M70.62,61.79 V70.62 H79.45 V61.79 H70.62 Z M114.76,61.79 V70.62 H123.59 V61.79 H114.76 Z M123.59,61.79 V70.62 H132.41 V61.79 H123.59 Z M132.41,61.79 V70.62 H141.24 V61.79 H132.41 Z M141.24,61.79 V70.62 H150.07 V61.79 H141.24 Z M158.90,61.79 V70.62 H167.72 V61.79 H158.90 Z M167.72,61.79 V70.62 H176.55 V61.79 H167.72 Z M0,70.62 V79.45 H8.83 V70.62 H0 Z M8.83,70.62 V79.45 H17.66 V70.62 H8.83 Z M26.48,70.62 V79.45 H35.31 V70.62 H26.48 Z M52.97,70.62 V79.45 H61.79 V70.62 H52.97 Z M61.79,70.62 V79.45 H70.62 V70.62 H61.79 Z M79.45,70.62 V79.45 H88.28 V70.62 H79.45 Z M88.28,70.62 V79.45 H97.10 V70.62 H88.28 Z M97.10,70.62 V79.45 H105.93 V70.62 H97.10 Z M150.07,70.62 V79.45 H158.90 V70.62 H150.07 Z M167.72,70.62 V79.45 H176.55 V70.62 H167.72 Z M176.55,70.62 V79.45 H185.38 V70.62 H176.55 Z M185.38,70.62 V79.45 H194.21 V70.62 H185.38 Z M194.21,70.62 V79.45 H203.03 V70.62 H194.21 Z M203.03,70.62 V79.45 H211.86 V70.62 H203.03 Z M220.69,70.62 V79.45 H229.52 V70.62 H220.69 Z M229.52,70.62 V79.45 H238.34 V70.62 H229.52 Z M247.17,70.62 V79.45 H256.00 V70.62 H247.17 Z M35.31,79.45 V88.28 H44.14 V79.45 H35.31 Z M44.14,79.45 V88.28 H52.97 V79.45 H44.14 Z M61.79,79.45 V88.28 H70.62 V79.45 H61.79 Z M79.45,79.45 V88.28 H88.28 V79.45 H79.45 Z M88.28,79.45 V88.28 H97.10 V79.45 H88.28 Z M105.93,79.45 V88.28 H114.76 V79.45 H105.93 Z M132.41,79.45 V88.28 H141.24 V79.45 H132.41 Z M150.07,79.45 V88.28 H158.90 V79.45 H150.07 Z M158.90,79.45 V88.28 H167.72 V79.45 H158.90 Z M194.21,79.45 V88.28 H203.03 V79.45 H194.21 Z M203.03,79.45 V88.28 H211.86 V79.45 H203.03 Z M220.69,79.45 V88.28 H229.52 V79.45 H220.69 Z M247.17,79.45 V88.28 H256.00 V79.45 H247.17 Z M0,88.28 V97.10 H8.83 V88.28 H0 Z M17.66,88.28 V97.10 H26.48 V88.28 H17.66 Z M44.14,88.28 V97.10 H52.97 V88.28 H44.14 Z M52.97,88.28 V97.10 H61.79 V88.28 H52.97 Z M79.45,88.28 V97.10 H88.28 V88.28 H79.45 Z M105.93,88.28 V97.10 H114.76 V88.28 H105.93 Z M114.76,88.28 V97.10 H123.59 V88.28 H114.76 Z M123.59,88.28 V97.10 H132.41 V88.28 H123.59 Z M132.41,88.28 V97.10 H141.24 V88.28 H132.41 Z M150.07,88.28 V97.10 H158.90 V88.28 H150.07 Z M158.90,88.28 V97.10 H167.72 V88.28 H158.90 Z M185.38,88.28 V97.10 H194.21 V88.28 H185.38 Z M203.03,88.28 V97.10 H211.86 V88.28 H203.03 Z M211.86,88.28 V97.10 H220.69 V88.28 H211.86 Z M220.69,88.28 V97.10 H229.52 V88.28 H220.69 Z M229.52,88.28 V97.10 H238.34 V88.28 H229.52 Z M238.34,88.28 V97.10 H247.17 V88.28 H238.34 Z M17.66,97.10 V105.93 H26.48 V97.10 H17.66 Z M44.14,97.10 V105.93 H52.97 V97.10 H44.14 Z M79.45,97.10 V105.93 H88.28 V97.10 H79.45 Z M97.10,97.10 V105.93 H105.93 V97.10 H97.10 Z M114.76,97.10 V105.93 H123.59 V97.10 H114.76 Z M123.59,97.10 V105.93 H132.41 V97.10 H123.59 Z M141.24,97.10 V105.93 H150.07 V97.10 H141.24 Z M150.07,97.10 V105.93 H158.90 V97.10 H150.07 Z M158.90,97.10 V105.93 H167.72 V97.10 H158.90 Z M211.86,97.10 V105.93 H220.69 V97.10 H211.86 Z M220.69,97.10 V105.93 H229.52 V97.10 H220.69 Z M229.52,97.10 V105.93 H238.34 V97.10 H229.52 Z M247.17,97.10 V105.93 H256.00 V97.10 H247.17 Z M0,105.93 V114.76 H8.83 V105.93 H0 Z M8.83,105.93 V114.76 H17.66 V105.93 H8.83 Z M17.66,105.93 V114.76 H26.48 V105.93 H17.66 Z M35.31,105.93 V114.76 H44.14 V105.93 H35.31 Z M52.97,105.93 V114.76 H61.79 V105.93 H52.97 Z M79.45,105.93 V114.76 H88.28 V105.93 H79.45 Z M97.10,105.93 V114.76 H105.93 V105.93 H97.10 Z M105.93,105.93 V114.76 H114.76 V105.93 H105.93 Z M132.41,105.93 V114.76 H141.24 V105.93 H132.41 Z M185.38,105.93 V114.76 H194.21 V105.93 H185.38 Z M194.21,105.93 V114.76 H203.03 V105.93 H194.21 Z M211.86,105.93 V114.76 H220.69 V105.93 H211.86 Z M220.69,105.93 V114.76 H229.52 V105.93 H220.69 Z M229.52,105.93 V114.76 H238.34 V105.93 H229.52 Z M0,114.76 V123.59 H8.83 V114.76 H0 Z M8.83,114.76 V123.59 H17.66 V114.76 H8.83 Z M44.14,114.76 V123.59 H52.97 V114.76 H44.14 Z M70.62,114.76 V123.59 H79.45 V114.76 H70.62 Z M79.45,114.76 V123.59 H88.28 V114.76 H79.45 Z M88.28,114.76 V123.59 H97.10 V114.76 H88.28 Z M123.59,114.76 V123.59 H132.41 V114.76 H123.59 Z M158.90,114.76 V123.59 H167.72 V114.76 H158.90 Z M167.72,114.76 V123.59 H176.55 V114.76 H167.72 Z M176.55,114.76 V123.59 H185.38 V114.76 H176.55 Z M203.03,114.76 V123.59 H211.86 V114.76 H203.03 Z M220.69,114.76 V123.59 H229.52 V114.76 H220.69 Z M229.52,114.76 V123.59 H238.34 V114.76 H229.52 Z M247.17,114.76 V123.59 H256.00 V114.76 H247.17 Z M0,123.59 V132.41 H8.83 V123.59 H0 Z M26.48,123.59 V132.41 H35.31 V123.59 H26.48 Z M35.31,123.59 V132.41 H44.14 V123.59 H35.31 Z M52.97,123.59 V132.41 H61.79 V123.59 H52.97 Z M79.45,123.59 V132.41 H88.28 V123.59 H79.45 Z M105.93,123.59 V132.41 H114.76 V123.59 H105.93 Z M114.76,123.59 V132.41 H123.59 V123.59 H114.76 Z M132.41,123.59 V132.41 H141.24 V123.59 H132.41 Z M141.24,123.59 V132.41 H150.07 V123.59 H141.24 Z M150.07,123.59 V132.41 H158.90 V123.59 H150.07 Z M158.90,123.59 V132.41 H167.72 V123.59 H158.90 Z M167.72,123.59 V132.41 H176.55 V123.59 H167.72 Z M176.55,123.59 V132.41 H185.38 V123.59 H176.55 Z M194.21,123.59 V132.41 H203.03 V123.59 H194.21 Z M203.03,123.59 V132.41 H211.86 V123.59 H203.03 Z M229.52,123.59 V132.41 H238.34 V123.59 H229.52 Z M238.34,123.59 V132.41 H247.17 V123.59 H238.34 Z M0,132.41 V141.24 H8.83 V132.41 H0 Z M26.48,132.41 V141.24 H35.31 V132.41 H26.48 Z M44.14,132.41 V141.24 H52.97 V132.41 H44.14 Z M61.79,132.41 V141.24 H70.62 V132.41 H61.79 Z M70.62,132.41 V141.24 H79.45 V132.41 H70.62 Z M79.45,132.41 V141.24 H88.28 V132.41 H79.45 Z M105.93,132.41 V141.24 H114.76 V132.41 H105.93 Z M123.59,132.41 V141.24 H132.41 V132.41 H123.59 Z M141.24,132.41 V141.24 H150.07 V132.41 H141.24 Z M158.90,132.41 V141.24 H167.72 V132.41 H158.90 Z M167.72,132.41 V141.24 H176.55 V132.41 H167.72 Z M176.55,132.41 V141.24 H185.38 V132.41 H176.55 Z M211.86,132.41 V141.24 H220.69 V132.41 H211.86 Z M220.69,132.41 V141.24 H229.52 V132.41 H220.69 Z M238.34,132.41 V141.24 H247.17 V132.41 H238.34 Z M247.17,132.41 V141.24 H256.00 V132.41 H247.17 Z M8.83,141.24 V150.07 H17.66 V141.24 H8.83 Z M17.66,141.24 V150.07 H26.48 V141.24 H17.66 Z M35.31,141.24 V150.07 H44.14 V141.24 H35.31 Z M44.14,141.24 V150.07 H52.97 V141.24 H44.14 Z M52.97,141.24 V150.07 H61.79 V141.24 H52.97 Z M61.79,141.24 V150.07 H70.62 V141.24 H61.79 Z M88.28,141.24 V150.07 H97.10 V141.24 H88.28 Z M97.10,141.24 V150.07 H105.93 V141.24 H97.10 Z M114.76,141.24 V150.07 H123.59 V141.24 H114.76 Z M123.59,141.24 V150.07 H132.41 V141.24 H123.59 Z M132.41,141.24 V150.07 H141.24 V141.24 H132.41 Z M150.07,141.24 V150.07 H158.90 V141.24 H150.07 Z M185.38,141.24 V150.07 H194.21 V141.24 H185.38 Z M211.86,141.24 V150.07 H220.69 V141.24 H211.86 Z M220.69,141.24 V150.07 H229.52 V141.24 H220.69 Z M0,150.07 V158.90 H8.83 V150.07 H0 Z M8.83,150.07 V158.90 H17.66 V150.07 H8.83 Z M26.48,150.07 V158.90 H35.31 V150.07 H26.48 Z M35.31,150.07 V158.90 H44.14 V150.07 H35.31 Z M61.79,150.07 V158.90 H70.62 V150.07 H61.79 Z M70.62,150.07 V158.90 H79.45 V150.07 H70.62 Z M167.72,150.07 V158.90 H176.55 V150.07 H167.72 Z M176.55,150.07 V158.90 H185.38 V150.07 H176.55 Z M211.86,150.07 V158.90 H220.69 V150.07 H211.86 Z M0,158.90 V167.72 H8.83 V158.90 H0 Z M17.66,158.90 V167.72 H26.48 V158.90 H17.66 Z M52.97,158.90 V167.72 H61.79 V158.90 H52.97 Z M61.79,158.90 V167.72 H70.62 V158.90 H61.79 Z M70.62,158.90 V167.72 H79.45 V158.90 H70.62 Z M97.10,158.90 V167.72 H105.93 V158.90 H97.10 Z M132.41,158.90 V167.72 H141.24 V158.90 H132.41 Z M141.24,158.90 V167.72 H150.07 V158.90 H141.24 Z M167.72,158.90 V167.72 H176.55 V158.90 H167.72 Z M176.55,158.90 V167.72 H185.38 V158.90 H176.55 Z M229.52,158.90 V167.72 H238.34 V158.90 H229.52 Z M238.34,158.90 V167.72 H247.17 V158.90 H238.34 Z M247.17,158.90 V167.72 H256.00 V158.90 H247.17 Z M0,167.72 V176.55 H8.83 V167.72 H0 Z M35.31,167.72 V176.55 H44.14 V167.72 H35.31 Z M44.14,167.72 V176.55 H52.97 V167.72 H44.14 Z M61.79,167.72 V176.55 H70.62 V167.72 H61.79 Z M79.45,167.72 V176.55 H88.28 V167.72 H79.45 Z M97.10,167.72 V176.55 H105.93 V167.72 H97.10 Z M123.59,167.72 V176.55 H132.41 V167.72 H123.59 Z M132.41,167.72 V176.55 H141.24 V167.72 H132.41 Z M141.24,167.72 V176.55 H150.07 V167.72 H141.24 Z M194.21,167.72 V176.55 H203.03 V167.72 H194.21 Z M220.69,167.72 V176.55 H229.52 V167.72 H220.69 Z M247.17,167.72 V176.55 H256.00 V167.72 H247.17 Z M0,176.55 V185.38 H8.83 V176.55 H0 Z M8.83,176.55 V185.38 H17.66 V176.55 H8.83 Z M44.14,176.55 V185.38 H52.97 V176.55 H44.14 Z M52.97,176.55 V185.38 H61.79 V176.55 H52.97 Z M79.45,176.55 V185.38 H88.28 V176.55 H79.45 Z M88.28,176.55 V185.38 H97.10 V176.55 H88.28 Z M97.10,176.55 V185.38 H105.93 V176.55 H97.10 Z M105.93,176.55 V185.38 H114.76 V176.55 H105.93 Z M123.59,176.55 V185.38 H132.41 V176.55 H123.59 Z M132.41,176.55 V185.38 H141.24 V176.55 H132.41 Z M141.24,176.55 V185.38 H150.07 V176.55 H141.24 Z M158.90,176.55 V185.38 H167.72 V176.55 H158.90 Z M176.55,176.55 V185.38 H185.38 V176.55 H176.55 Z M185.38,176.55 V185.38 H194.21 V176.55 H185.38 Z M194.21,176.55 V185.38 H203.03 V176.55 H194.21 Z M203.03,176.55 V185.38 H211.86 V176.55 H203.03 Z M211.86,176.55 V185.38 H220.69 V176.55 H211.86 Z M229.52,176.55 V185.38 H238.34 V176.55 H229.52 Z M238.34,176.55 V185.38 H247.17 V176.55 H238.34 Z M247.17,176.55 V185.38 H256.00 V176.55 H247.17 Z M88.28,185.38 V194.21 H97.10 V185.38 H88.28 Z M97.10,185.38 V194.21 H105.93 V185.38 H97.10 Z M132.41,185.38 V194.21 H141.24 V185.38 H132.41 Z M176.55,185.38 V194.21 H185.38 V185.38 H176.55 Z M211.86,185.38 V194.21 H220.69 V185.38 H211.86 Z M220.69,185.38 V194.21 H229.52 V185.38 H220.69 Z M238.34,185.38 V194.21 H247.17 V185.38 H238.34 Z M247.17,185.38 V194.21 H256.00 V185.38 H247.17 Z M0,194.21 V203.03 H8.83 V194.21 H0 Z M8.83,194.21 V203.03 H17.66 V194.21 H8.83 Z M17.66,194.21 V203.03 H26.48 V194.21 H17.66 Z M26.48,194.21 V203.03 H35.31 V194.21 H26.48 Z M35.31,194.21 V203.03 H44.14 V194.21 H35.31 Z M44.14,194.21 V203.03 H52.97 V194.21 H44.14 Z M52.97,194.21 V203.03 H61.79 V194.21 H52.97 Z M70.62,194.21 V203.03 H79.45 V194.21 H70.62 Z M79.45,194.21 V203.03 H88.28 V194.21 H79.45 Z M97.10,194.21 V203.03 H105.93 V194.21 H97.10 Z M114.76,194.21 V203.03 H123.59 V194.21 H114.76 Z M123.59,194.21 V203.03 H132.41 V194.21 H123.59 Z M132.41,194.21 V203.03 H141.24 V194.21 H132.41 Z M158.90,194.21 V203.03 H167.72 V194.21 H158.90 Z M167.72,194.21 V203.03 H176.55 V194.21 H167.72 Z M176.55,194.21 V203.03 H185.38 V194.21 H176.55 Z M194.21,194.21 V203.03 H203.03 V194.21 H194.21 Z M211.86,194.21 V203.03 H220.69 V194.21 H211.86 Z M247.17,194.21 V203.03 H256.00 V194.21 H247.17 Z M0,203.03 V211.86 H8.83 V203.03 H0 Z M52.97,203.03 V211.86 H61.79 V203.03 H52.97 Z M79.45,203.03 V211.86 H88.28 V203.03 H79.45 Z M88.28,203.03 V211.86 H97.10 V203.03 H88.28 Z M132.41,203.03 V211.86 H141.24 V203.03 H132.41 Z M150.07,203.03 V211.86 H158.90 V203.03 H150.07 Z M158.90,203.03 V211.86 H167.72 V203.03 H158.90 Z M167.72,203.03 V211.86 H176.55 V203.03 H167.72 Z M176.55,203.03 V211.86 H185.38 V203.03 H176.55 Z M211.86,203.03 V211.86 H220.69 V203.03 H211.86 Z M220.69,203.03 V211.86 H229.52 V203.03 H220.69 Z M229.52,203.03 V211.86 H238.34 V203.03 H229.52 Z M238.34,203.03 V211.86 H247.17 V203.03 H238.34 Z M0,211.86 V220.69 H8.83 V211.86 H0 Z M17.66,211.86 V220.69 H26.48 V211.86 H17.66 Z M26.48,211.86 V220.69 H35.31 V211.86 H26.48 Z M35.31,211.86 V220.69 H44.14 V211.86 H35.31 Z M52.97,211.86 V220.69 H61.79 V211.86 H52.97 Z M79.45,211.86 V220.69 H88.28 V211.86 H79.45 Z M97.10,211.86 V220.69 H105.93 V211.86 H97.10 Z M132.41,211.86 V220.69 H141.24 V211.86 H132.41 Z M141.24,211.86 V220.69 H150.07 V211.86 H141.24 Z M158.90,211.86 V220.69 H167.72 V211.86 H158.90 Z M167.72,211.86 V220.69 H176.55 V211.86 H167.72 Z M176.55,211.86 V220.69 H185.38 V211.86 H176.55 Z M185.38,211.86 V220.69 H194.21 V211.86 H185.38 Z M194.21,211.86 V220.69 H203.03 V211.86 H194.21 Z M203.03,211.86 V220.69 H211.86 V211.86 H203.03 Z M211.86,211.86 V220.69 H220.69 V211.86 H211.86 Z M220.69,211.86 V220.69 H229.52 V211.86 H220.69 Z M0,220.69 V229.52 H8.83 V220.69 H0 Z M17.66,220.69 V229.52 H26.48 V220.69 H17.66 Z M26.48,220.69 V229.52 H35.31 V220.69 H26.48 Z M35.31,220.69 V229.52 H44.14 V220.69 H35.31 Z M52.97,220.69 V229.52 H61.79 V220.69 H52.97 Z M70.62,220.69 V229.52 H79.45 V220.69 H70.62 Z M105.93,220.69 V229.52 H114.76 V220.69 H105.93 Z M141.24,220.69 V229.52 H150.07 V220.69 H141.24 Z M150.07,220.69 V229.52 H158.90 V220.69 H150.07 Z M176.55,220.69 V229.52 H185.38 V220.69 H176.55 Z M185.38,220.69 V229.52 H194.21 V220.69 H185.38 Z M194.21,220.69 V229.52 H203.03 V220.69 H194.21 Z M203.03,220.69 V229.52 H211.86 V220.69 H203.03 Z M220.69,220.69 V229.52 H229.52 V220.69 H220.69 Z M238.34,220.69 V229.52 H247.17 V220.69 H238.34 Z M0,229.52 V238.34 H8.83 V229.52 H0 Z M17.66,229.52 V238.34 H26.48 V229.52 H17.66 Z M26.48,229.52 V238.34 H35.31 V229.52 H26.48 Z M35.31,229.52 V238.34 H44.14 V229.52 H35.31 Z M52.97,229.52 V238.34 H61.79 V229.52 H52.97 Z M88.28,229.52 V238.34 H97.10 V229.52 H88.28 Z M105.93,229.52 V238.34 H114.76 V229.52 H105.93 Z M114.76,229.52 V238.34 H123.59 V229.52 H114.76 Z M123.59,229.52 V238.34 H132.41 V229.52 H123.59 Z M150.07,229.52 V238.34 H158.90 V229.52 H150.07 Z M158.90,229.52 V238.34 H167.72 V229.52 H158.90 Z M167.72,229.52 V238.34 H176.55 V229.52 H167.72 Z M176.55,229.52 V238.34 H185.38 V229.52 H176.55 Z M185.38,229.52 V238.34 H194.21 V229.52 H185.38 Z M211.86,229.52 V238.34 H220.69 V229.52 H211.86 Z M229.52,229.52 V238.34 H238.34 V229.52 H229.52 Z M0,238.34 V247.17 H8.83 V238.34 H0 Z M52.97,238.34 V247.17 H61.79 V238.34 H52.97 Z M70.62,238.34 V247.17 H79.45 V238.34 H70.62 Z M88.28,238.34 V247.17 H97.10 V238.34 H88.28 Z M114.76,238.34 V247.17 H123.59 V238.34 H114.76 Z M123.59,238.34 V247.17 H132.41 V238.34 H123.59 Z M132.41,238.34 V247.17 H141.24 V238.34 H132.41 Z M141.24,238.34 V247.17 H150.07 V238.34 H141.24 Z M150.07,238.34 V247.17 H158.90 V238.34 H150.07 Z M185.38,238.34 V247.17 H194.21 V238.34 H185.38 Z M194.21,238.34 V247.17 H203.03 V238.34 H194.21 Z M211.86,238.34 V247.17 H220.69 V238.34 H211.86 Z M238.34,238.34 V247.17 H247.17 V238.34 H238.34 Z M247.17,238.34 V247.17 H256.00 V238.34 H247.17 Z M0,247.17 V256.00 H8.83 V247.17 H0 Z M8.83,247.17 V256.00 H17.66 V247.17 H8.83 Z M17.66,247.17 V256.00 H26.48 V247.17 H17.66 Z M26.48,247.17 V256.00 H35.31 V247.17 H26.48 Z M35.31,247.17 V256.00 H44.14 V247.17 H35.31 Z M44.14,247.17 V256.00 H52.97 V247.17 H44.14 Z M52.97,247.17 V256.00 H61.79 V247.17 H52.97 Z M70.62,247.17 V256.00 H79.45 V247.17 H70.62 Z M79.45,247.17 V256.00 H88.28 V247.17 H79.45 Z M97.10,247.17 V256.00 H105.93 V247.17 H97.10 Z M114.76,247.17 V256.00 H123.59 V247.17 H114.76 Z M123.59,247.17 V256.00 H132.41 V247.17 H123.59 Z M185.38,247.17 V256.00 H194.21 V247.17 H185.38 Z M203.03,247.17 V256.00 H211.86 V247.17 H203.03 Z M220.69,247.17 V256.00 H229.52 V247.17 H220.69 Z M229.52,247.17 V256.00 H238.34 V247.17 H229.52 Z " /></svg>