<?xml version="1.0" standalone="yes"?>
<svg xmlns="http://www.w3.org/2000/svg" version="1.1" viewBox="0 0 256 256">
  <path x="0" y="0" d="M0,0 V7.76 H7.76 V0 H0 Z M7.76,0 V7.76 H15.52 V0 H7.76 Z M15.52,0 V7.76 H23.27 V0 H15.52 Z M23.27,0 V7.76 H31.03 V0 H23.27 Z M31.03,0 V7.76 H38.79 V0 H31.03 Z M38.79,0 V7.76 H46.55 V0 H38.79 Z M46.55,0 V7.76 H54.30 V0 H46.55 Z M62.06,0 V7.76 H69.82 V0 H62.06 Z M108.61,0 V7.76 H116.36 V0 H108.61 Z M162.91,0 V7.76 H170.67 V0 H162.91 Z M186.18,0 V7.76 H193.94 V0 H186.18 Z M201.70,0 V7.76 H209.45 V0 H201.70 Z M209.45,0 V7.76 H217.21 V0 H209.45 Z M217.21,0 V7.76 H224.97 V0 H217.21 Z M224.97,0 V7.76 H232.73 V0 H224.97 Z M232.73,0 V7.76 H240.48 V0 H232.73 Z M240.48,0 V7.76 H248.24 V0 H240.48 Z M248.24,0 V7.76 H256 V0 H248.24 Z M0,7.76 V15.52 H7.76 V7.76 H0 Z M46.55,7.76 V15.52 H54.30 V7.76 H46.55 Z M69.82,7.76 V15.52 H77.58 V7.76 H69.82 Z M77.58,7.76 V15.52 H85.33 V7.76 H77.58 Z M124.12,7.76 V15.52 H131.88 V7.76 H124.12 Z M162.91,7.76 V15.52 H170.67 V7.76 H162.91 Z M186.18,7.76 V15.52 H193.94 V7.76 H186.18 Z M201.70,7.76 V15.52 H209.45 V7.76 H201.70 Z M248.24,7.76 V15.52 H256 V7.76 H248.24 Z M0,15.52 V23.27 H7.76 V15.52 H0 Z M15.52,15.52 V23.27 H23.27 V15.52 H15.52 Z M23.27,15.52 V23.27 H31.03 V15.52 H23.27 Z M31.03,15.52 V23.27 H38.79 V15.52 H31.03 Z M46.55,15.52 V23.27 H54.30 V15.52 H46.55 Z M93.09,15.52 V23.27 H100.85 V15.52 H93.09 Z M100.85,15.52 V23.27 H108.61 V15.52 H100.85 Z M124.12,15.52 V23.27 H131.88 V15.52 H124.12 Z M131.88,15.52 V23.27 H139.64 V15.52 H131.88 Z M162.91,15.52 V23.27 H170.67 V15.52 H162.91 Z M170.67,15.52 V23.27 H178.42 V15.52 H170.67 Z M186.18,15.52 V23.27 H193.94 V15.52 H186.18 Z M201.70,15.52 V23.27 H209.45 V15.52 H201.70 Z M217.21,15.52 V23.27 H224.97 V15.52 H217.21 Z M224.97,15.52 V23.27 H232.73 V15.52 H224.97 Z M232.73,15.52 V23.27 H240.48 V15.52 H232.73 Z M248.24,15.52 V23.27 H256 V15.52 H248.24 Z M0,23.27 V31.03 H7.76 V23.27 H0 Z M15.52,23.27 V31.03 H23.27 V23.27 H15.52 Z M23.27,23.27 V31.03 H31.03 V23.27 H23.27 Z M31.03,23.27 V31.03 H38.79 V23.27 H31.03 Z M46.55,23.27 V31.03 H54.30 V23.27 H46.55 Z M77.58,23.27 V31.03 H85.33 V23.27 H77.58 Z M93.09,23.27 V31.03 H100.85 V23.27 H93.09 Z M116.36,23.27 V31.03 H124.12 V23.27 H116.36 Z M124.12,23.27 V31.03 H131.88 V23.27 H124.12 Z M131.88,23.27 V31.03 H139.64 V23.27 H131.88 Z M155.15,23.27 V31.03 H162.91 V23.27 H155.15 Z M162.91,23.27 V31.03 H170.67 V23.27 H162.91 Z M201.70,23.27 V31.03 H209.45 V23.27 H201.70 Z M217.21,23.27 V31.03 H224.97 V23.27 H217.21 Z M224.97,23.27 V31.03 H232.73 V23.27 H224.97 Z M232.73,23.27 V31.03 H240.48 V23.27 H232.73 Z M248.24,23.27 V31.03 H256 V23.27 H248.24 Z M0,31.03 V38.79 H7.76 V31.03 H0 Z M15.52,31.03 V38.79 H23.27 V31.03 H15.52 Z M23.27,31.03 V38.79 H31.03 V31.03 H23.27 Z M31.03,31.03 V38.79 H38.79 V31.03 H31.03 Z M46.55,31.03 V38.79 H54.30 V31.03 H46.55 Z M62.06,31.03 V38.79 H69.82 V31.03 H62.06 Z M69.82,31.03 V38.79 H77.58 V31.03 H69.82 Z M85.33,31.03 V38.79 H93.09 V31.03 H85.33 Z M100.85,31.03 V38.79 H108.61 V31.03 H100.85 Z M139.64,31.03 V38.79 H147.39 V31.03 H139.64 Z M147.39,31.03 V38.79 H155.15 V31.03 H147.39 Z M155.15,31.03 V38.79 H162.91 V31.03 H155.15 Z M170.67,31.03 V38.79 H178.42 V31.03 H170.67 Z M186.18,31.03 V38.79 H193.94 V31.03 H186.18 Z M201.70,31.03 V38.79 H209.45 V31.03 H201.70 Z M217.21,31.03 V38.79 H224.97 V31.03 H217.21 Z M224.97,31.03 V38.79 H232.73 V31.03 H224.97 Z M232.73,31.03 V38.79 H240.48 V31.03 H232.73 Z M248.24,31.03 V38.79 H256 V31.03 H248.24 Z M0,38.79 V46.55 H7.76 V38.79 H0 Z M46.55,38.79 V46.55 H54.30 V38.79 H46.55 Z M77.58,38.79 V46.55 H85.33 V38.79 H77.58 Z M85.33,38.79 V46.55 H93.09 V38.79 H85.33 Z M100.85,38.79 V46.55 H108.61 V38.79 H100.85 Z M108.61,38.79 V46.55 H116.36 V38.79 H108.61 Z M116.36,38.79 V46.55 H124.12 V38.79 H116.36 Z M124.12,38.79 V46.55 H131.88 V38.79 H124.12 Z M131.88,38.79 V46.55 H139.64 V38.79 H131.88 Z M139.64,38.79 V46.55 H147.39 V38.79 H139.64 Z M178.42,38.79 V46.55 H186.18 V38.79 H178.42 Z M201.70,38.79 V46.55 H209.45 V38.79 H201.70 Z M248.24,38.79 V46.55 H256 V38.79 H248.24 Z M0,46.55 V54.30 H7.76 V46.55 H0 Z M7.76,46.55 V54.30 H15.52 V46.55 H7.76 Z M15.52,46.55 V54.30 H23.27 V46.55 H15.52 Z M23.27,46.55 V54.30 H31.03 V46.55 H23.27 Z M31.03,46.55 V54.30 H38.79 V46.55 H31.03 Z M38.79,46.55 V54.30 H46.55 V46.55 H38.79 Z M46.55,46.55 V54.30 H54.30 V46.55 H46.55 Z M62.06,46.55 V54.30 H69.82 V46.55 H62.06 Z M77.58,46.55 V54.30 H85.33 V46.55 H77.58 Z M93.09,46.55 V54.30 H100.85 V46.55 H93.09 Z M108.61,46.55 V54.30 H116.36 V46.55 H108.61 Z M124.12,46.55 V54.30 H131.88 V46.55 H124.12 Z M139.64,46.55 V54.30 H147.39 V46.55 H139.64 Z M155.15,46.55 V54.30 H162.91 V46.55 H155.15 Z M170.67,46.55 V54.30 H178.42 V46.55 H170.67 Z M186.18,46.55 V54.30 H193.94 V46.55 H186.18 Z M201.70,46.55 V54.30 H209.45 V46.55 H201.70 Z M209.45,46.55 V54.30 H217.21 V46.55 H209.45 Z M217.21,46.55 V54.30 H224.97 V46.55 H217.21 Z M224.97,46.55 V54.30 H232.73 V46.55 H224.97 Z M232.73,46.55 V54.30 H240.48 V46.55 H232.73 Z M240.48,46.55 V54.30 H248.24 V46.55 H240.48 Z M248.24,46.55 V54.30 H256 V46.55 H248.24 Z M62.06,54.30 V62.06 H69.82 V54.30 H62.06 Z M93.09,54.30 V62.06 H100.85 V54.30 H93.09 Z M108.61,54.30 V62.06 H116.36 V54.30 H108.61 Z M116.36,54.30 V62.06 H124.12 V54.30 H116.36 Z M124.12,54.30 V62.06 H131.88 V54.30 H124.12 Z M131.88,54.30 V62.06 H139.64 V54.30 H131.88 Z M155.15,54.30 V62.06 H162.91 V54.30 H155.15 Z M162.91,54.30 V62.06 H170.67 V54.30 H162.91 Z M170.67,54.30 V62.06 H178.42 V54.30 H170.67 Z M186.18,54.30 V62.06 H193.94 V54.30 H186.18 Z M0,62.06 V69.82 H7.76 V62.06 H0 Z M23.27,62.06 V69.82 H31.03 V62.06 H23.27 Z M31.03,62.06 V69.82 H38.79 V62.06 H31.03 Z M38.79,62.06 V69.82 H46.55 V62.06 H38.79 Z M46.55,62.06 V69.82 H54.30 V62.06 H46.55 Z M54.30,62.06 V69.82 H62.06 V62.06 H54.30 Z M62.06,62.06 V69.82 H69.82 V62.06 H62.06 Z M85.33,62.06 V69.82 H93.09 V62.06 H85.33 Z M93.09,62.06 V69.82 H100.85 V62.06 H93.09 Z M116.36,62.06 V69.82 H124.12 V62.06 H116.36 Z M139.64,62.06 V69.82 H147.39 V62.06 H139.64 Z M155.15,62.06 V69.82 H162.91 V62.06 H155.15 Z M162.91,62.06 V69.82 H170.67 V62.06 H162.91 Z M178.42,62.06 V69.82 H186.18 V62.06 H178.42 Z M186.18,62.06 V69.82 H193.94 V62.06 H186.18 Z M193.94,62.06 V69.82 H201.70 V62.06 H193.94 Z M201.70,62.06 V69.82 H209.45 V62.06 H201.70 Z M217.21,62.06 V69.82 H224.97 V62.06 H217.21 Z M248.24,62.06 V69.82 H256 V62.06 H248.24 Z M7.76,69.82 V77.58 H15.52 V69.82 H7.76 Z M15.52,69.82 V77.58 H23.27 V69.82 H15.52 Z M23.27,69.82 V77.58 H31.03 V69.82 H23.27 Z M31.03,69.82 V77.58 H38.79 V69.82 H31.03 Z M38.79,69.82 V77.58 H46.55 V69.82 H38.79 Z M69.82,69.82 V77.58 H77.58 V69.82 H69.82 Z M124.12,69.82 V77.58 H131.88 V69.82 H124.12 Z M155.15,69.82 V77.58 H162.91 V69.82 H155.15 Z M170.67,69.82 V77.58 H178.42 V69.82 H170.67 Z M178.42,69.82 V77.58 H186.18 V69.82 H178.42 Z M193.94,69.82 V77.58 H201.70 V69.82 H193.94 Z M201.70,69.82 V77.58 H209.45 V69.82 H201.70 Z M209.45,69.82 V77.58 H217.21 V69.82 H209.45 Z M217.21,69.82 V77.58 H224.97 V69.82 H217.21 Z M240.48,69.82 V77.58 H248.24 V69.82 H240.48 Z M248.24,69.82 V77.58 H256 V69.82 H248.24 Z M0,77.58 V85.33 H7.76 V77.58 H0 Z M7.76,77.58 V85.33 H15.52 V77.58 H7.76 Z M23.27,77.58 V85.33 H31.03 V77.58 H23.27 Z M46.55,77.58 V85.33 H54.30 V77.58 H46.55 Z M54.30,77.58 V85.33 H62.06 V77.58 H54.30 Z M77.58,77.58 V85.33 H85.33 V77.58 H77.58 Z M100.85,77.58 V85.33 H108.61 V77.58 H100.85 Z M124.12,77.58 V85.33 H131.88 V77.58 H124.12 Z M131.88,77.58 V85.33 H139.64 V77.58 H131.88 Z M147.39,77.58 V85.33 H155.15 V77.58 H147.39 Z M170.67,77.58 V85.33 H178.42 V77.58 H170.67 Z M178.42,77.58 V85.33 H186.18 V77.58 H178.42 Z M186.18,77.58 V85.33 H193.94 V77.58 H186.18 Z M201.70,77.58 V85.33 H209.45 V77.58 H201.70 Z M209.45,77.58 V85.33 H217.21 V77.58 H209.45 Z M217.21,77.58 V85.33 H224.97 V77.58 H217.21 Z M240.48,77.58 V85.33 H248.24 V77.58 H240.48 Z M7.76,85.33 V93.09 H15.52 V85.33 H7.76 Z M38.79,85.33 V93.09 H46.55 V85.33 H38.79 Z M54.30,85.33 V93.09 H62.06 V85.33 H54.30 Z M69.82,85.33 V93.09 H77.58 V85.33 H69.82 Z M77.58,85.33 V93.09 H85.33 V85.33 H77.58 Z M85.33,85.33 V93.09 H93.09 V85.33 H85.33 Z M100.85,85.33 V93.09 H108.61 V85.33 H100.85 Z M108.61,85.33 V93.09 H116.36 V85.33 H108.61 Z M131.88,85.33 V93.09 H139.64 V85.33 H131.88 Z M147.39,85.33 V93.09 H155.15 V85.33 H147.39 Z M155.15,85.33 V93.09 H162.91 V85.33 H155.15 Z M162.91,85.33 V93.09 H170.67 V85.33 H162.91 Z M170.67,85.33 V93.09 H178.42 V85.33 H170.67 Z M178.42,85.33 V93.09 H186.18 V85.33 H178.42 Z M186.18,85.33 V93.09 H193.94 V85.33 H186.18 Z M201.70,85.33 V93.09 H209.45 V85.33 H201.70 Z M209.45,85.33 V93.09 H217.21 V85.33 H209.45 Z M217.21,85.33 V93.09 H224.97 V85.33 H217.21 Z M224.97,85.33 V93.09 H232.73 V85.33 H224.97 Z M232.73,85.33 V93.09 H240.48 V85.33 H232.73 Z M240.48,85.33 V93.09 H248.24 V85.33 H240.48 Z M23.27,93.09 V100.85 H31.03 V93.09 H23.27 Z M31.03,93.09 V100.85 H38.79 V93.09 H31.03 Z M46.55,93.09 V100.85 H54.30 V93.09 H46.55 Z M69.82,93.09 V100.85 H77.58 V93.09 H69.82 Z M77.58,93.09 V100.85 H85.33 V93.09 H77.58 Z M93.09,93.09 V100.85 H100.85 V93.09 H93.09 Z M108.61,93.09 V100.85 H116.36 V93.09 H108.61 Z M116.36,93.09 V100.85 H124.12 V93.09 H116.36 Z M147.39,93.09 V100.85 H155.15 V93.09 H147.39 Z M162.91,93.09 V100.85 H170.67 V93.09 H162.91 Z M170.67,93.09 V100.85 H178.42 V93.09 H170.67 Z M201.70,93.09 V100.85 H209.45 V93.09 H201.70 Z M224.97,93.09 V100.85 H232.73 V93.09 H224.97 Z M240.48,93.09 V100.85 H248.24 V93.09 H240.48 Z M15.52,100.85 V108.61 H23.27 V100.85 H15.52 Z M69.82,100.85 V108.61 H77.58 V100.85 H69.82 Z M93.09,100.85 V108.61 H100.85 V100.85 H93.09 Z M108.61,100.85 V108.61 H116.36 V100.85 H108.61 Z M124.12,100.85 V108.61 H131.88 V100.85 H124.12 Z M139.64,100.85 V108.61 H147.39 V100.85 H139.64 Z M147.39,100.85 V108.61 H155.15 V100.85 H147.39 Z M162.91,100.85 V108.61 H170.67 V100.85 H162.91 Z M170.67,100.85 V108.61 H178.42 V100.85 H170.67 Z M178.42,100.85 V108.61 H186.18 V100.85 H178.42 Z M186.18,100.85 V108.61 H193.94 V100.85 H186.18 Z M209.45,100.85 V108.61 H217.21 V100.85 H209.45 Z M224.97,100.85 V108.61 H232.73 V100.85 H224.97 Z M232.73,100.85 V108.61 H240.48 V100.85 H232.73 Z M240.48,100.85 V108.61 H248.24 V100.85 H240.48 Z M248.24,100.85 V108.61 H256 V100.85 H248.24 Z M0,108.61 V116.36 H7.76 V108.61 H0 Z M23.27,108.61 V116.36 H31.03 V108.61 H23.27 Z M31.03,108.61 V116.36 H38.79 V108.61 H31.03 Z M46.55,108.61 V116.36 H54.30 V108.61 H46.55 Z M54.30,108.61 V116.36 H62.06 V108.61 H54.30 Z M69.82,108.61 V116.36 H77.58 V108.61 H69.82 Z M85.33,108.61 V116.36 H93.09 V108.61 H85.33 Z M93.09,108.61 V116.36 H100.85 V108.61 H93.09 Z M116.36,108.61 V116.36 H124.12 V108.61 H116.36 Z M131.88,108.61 V116.36 H139.64 V108.61 H131.88 Z M139.64,108.61 V116.36 H147.39 V108.61 H139.64 Z M147.39,108.61 V116.36 H155.15 V108.61 H147.39 Z M162.91,108.61 V116.36 H170.67 V108.61 H162.91 Z M178.42,108.61 V116.36 H186.18 V108.61 H178.42 Z M201.70,108.61 V116.36 H209.45 V108.61 H201.70 Z M209.45,108.61 V116.36 H217.21 V108.61 H209.45 Z M224.97,108.61 V116.36 H232.73 V108.61 H224.97 Z M232.73,108.61 V116.36 H240.48 V108.61 H232.73 Z M240.48,108.61 V116.36 H248.24 V108.61 H240.48 Z M0,116.36 V124.12 H7.76 V116.36 H0 Z M15.52,116.36 V124.12 H23.27 V116.36 H15.52 Z M23.27,116.36 V124.12 H31.03 V116.36 H23.27 Z M54.30,116.36 V124.12 H62.06 V116.36 H54.30 Z M69.82,116.36 V124.12 H77.58 V116.36 H69.82 Z M77.58,116.36 V124.12 H85.33 V116.36 H77.58 Z M93.09,116.36 V124.12 H100.85 V116.36 H93.09 Z M124.12,116.36 V124.12 H131.88 V116.36 H124.12 Z M131.88,116.36 V124.12 H139.64 V116.36 H131.88 Z M139.64,116.36 V124.12 H147.39 V116.36 H139.64 Z M155.15,116.36 V124.12 H162.91 V116.36 H155.15 Z M170.67,116.36 V124.12 H178.42 V116.36 H170.67 Z M178.42,116.36 V124.12 H186.18 V116.36 H178.42 Z M193.94,116.36 V124.12 H201.70 V116.36 H193.94 Z M201.70,116.36 V124.12 H209.45 V116.36 H201.70 Z M209.45,116.36 V124.12 H217.21 V116.36 H209.45 Z M217.21,116.36 V124.12 H224.97 V116.36 H217.21 Z M248.24,116.36 V124.12 H256 V116.36 H248.24 Z M0,124.12 V131.88 H7.76 V124.12 H0 Z M38.79,124.12 V131.88 H46.55 V124.12 H38.79 Z M46.55,124.12 V131.88 H54.30 V124.12 H46.55 Z M54.30,124.12 V131.88 H62.06 V124.12 H54.30 Z M62.06,124.12 V131.88 H69.82 V124.12 H62.06 Z M69.82,124.12 V131.88 H77.58 V124.12 H69.82 Z M100.85,124.12 V131.88 H108.61 V124.12 H100.85 Z M108.61,124.12 V131.88 H116.36 V124.12 H108.61 Z M139.64,124.12 V131.88 H147.39 V124.12 H139.64 Z M155.15,124.12 V131.88 H162.91 V124.12 H155.15 Z M178.42,124.12 V131.88 H186.18 V124.12 H178.42 Z M193.94,124.12 V131.88 H201.70 V124.12 H193.94 Z M209.45,124.12 V131.88 H217.21 V124.12 H209.45 Z M224.97,124.12 V131.88 H232.73 V124.12 H224.97 Z M232.73,124.12 V131.88 H240.48 V124.12 H232.73 Z M0,131.88 V139.64 H7.76 V131.88 H0 Z M7.76,131.88 V139.64 H15.52 V131.88 H7.76 Z M23.27,131.88 V139.64 H31.03 V131.88 H23.27 Z M38.79,131.88 V139.64 H46.55 V131.88 H38.79 Z M54.30,131.88 V139.64 H62.06 V131.88 H54.30 Z M62.06,131.88 V139.64 H69.82 V131.88 H62.06 Z M77.58,131.88 V139.64 H85.33 V131.88 H77.58 Z M85.33,131.88 V139.64 H93.09 V131.88 H85.33 Z M100.85,131.88 V139.64 H108.61 V131.88 H100.85 Z M116.36,131.88 V139.64 H124.12 V131.88 H116.36 Z M124.12,131.88 V139.64 H131.88 V131.88 H124.12 Z M131.88,131.88 V139.64 H139.64 V131.88 H131.88 Z M162.91,131.88 V139.64 H170.67 V131.88 H162.91 Z M170.67,131.88 V139.64 H178.42 V131.88 H170.67 Z M178.42,131.88 V139.64 H186.18 V131.88 H178.42 Z M186.18,131.88 V139.64 H193.94 V131.88 H186.18 Z M201.70,131.88 V139.64 H209.45 V131.88 H201.70 Z M209.45,131.88 V139.64 H217.21 V131.88 H209.45 Z M224.97,131.88 V139.64 H232.73 V131.88 H224.97 Z M240.48,131.88 V139.64 H248.24 V131.88 H240.48 Z M248.24,131.88 V139.64 H256 V131.88 H248.24 Z M0,139.64 V147.39 H7.76 V139.64 H0 Z M23.27,139.64 V147.39 H31.03 V139.64 H23.27 Z M31.03,139.64 V147.39 H38.79 V139.64 H31.03 Z M38.79,139.64 V147.39 H46.55 V139.64 H38.79 Z M46.55,139.64 V147.39 H54.30 V139.64 H46.55 Z M54.30,139.64 V147.39 H62.06 V139.64 H54.30 Z M69.82,139.64 V147.39 H77.58 V139.64 H69.82 Z M85.33,139.64 V147.39 H93.09 V139.64 H85.33 Z M93.09,139.64 V147.39 H100.85 V139.64 H93.09 Z M108.61,139.64 V147.39 H116.36 V139.64 H108.61 Z M116.36,139.64 V147.39 H124.12 V139.64 H116.36 Z M131.88,139.64 V147.39 H139.64 V139.64 H131.88 Z M139.64,139.64 V147.39 H147.39 V139.64 H139.64 Z M162.91,139.64 V147.39 H170.67 V139.64 H162.91 Z M170.67,139.64 V147.39 H178.42 V139.64 H170.67 Z M178.42,139.64 V147.39 H186.18 V139.64 H178.42 Z M186.18,139.64 V147.39 H193.94 V139.64 H186.18 Z M193.94,139.64 V147.39 H201.70 V139.64 H193.94 Z M209.45,139.64 V147.39 H217.21 V139.64 H209.45 Z M217.21,139.64 V147.39 H224.97 V139.64 H217.21 Z M232.73,139.64 V147.39 H240.48 V139.64 H232.73 Z M240.48,139.64 V147.39 H248.24 V139.64 H240.48 Z M7.76,147.39 V155.15 H15.52 V147.39 H7.76 Z M15.52,147.39 V155.15 H23.27 V147.39 H15.52 Z M23.27,147.39 V155.15 H31.03 V147.39 H23.27 Z M31.03,147.39 V155.15 H38.79 V147.39 H31.03 Z M38.79,147.39 V155.15 H46.55 V147.39 H38.79 Z M62.06,147.39 V155.15 H69.82 V147.39 H62.06 Z M85.33,147.39 V155.15 H93.09 V147.39 H85.33 Z M100.85,147.39 V155.15 H108.61 V147.39 H100.85 Z M108.61,147.39 V155.15 H116.36 V147.39 H108.61 Z M116.36,147.39 V155.15 H124.12 V147.39 H116.36 Z M162.91,147.39 V155.15 H170.67 V147.39 H162.91 Z M186.18,147.39 V155.15 H193.94 V147.39 H186.18 Z M217.21,147.39 V155.15 H224.97 V147.39 H217.21 Z M224.97,147.39 V155.15 H232.73 V147.39 H224.97 Z M232.73,147.39 V155.15 H240.48 V147.39 H232.73 Z M240.48,147.39 V155.15 H248.24 V147.39 H240.48 Z M7.76,155.15 V162.91 H15.52 V155.15 H7.76 Z M15.52,155.15 V162.91 H23.27 V155.15 H15.52 Z M23.27,155.15 V162.91 H31.03 V155.15 H23.27 Z M31.03,155.15 V162.91 H38.79 V155.15 H31.03 Z M46.55,155.15 V162.91 H54.30 V155.15 H46.55 Z M62.06,155.15 V162.91 H69.82 V155.15 H62.06 Z M69.82,155.15 V162.91 H77.58 V155.15 H69.82 Z M85.33,155.15 V162.91 H93.09 V155.15 H85.33 Z M93.09,155.15 V162.91 H100.85 V155.15 H93.09 Z M116.36,155.15 V162.91 H124.12 V155.15 H116.36 Z M124.12,155.15 V162.91 H131.88 V155.15 H124.12 Z M139.64,155.15 V162.91 H147.39 V155.15 H139.64 Z M162.91,155.15 V162.91 H170.67 V155.15 H162.91 Z M170.67,155.15 V162.91 H178.42 V155.15 H170.67 Z M186.18,155.15 V162.91 H193.94 V155.15 H186.18 Z M209.45,155.15 V162.91 H217.21 V155.15 H209.45 Z M217.21,155.15 V162.91 H224.97 V155.15 H217.21 Z M240.48,155.15 V162.91 H248.24 V155.15 H240.48 Z M248.24,155.15 V162.91 H256 V155.15 H248.24 Z M0,162.91 V170.67 H7.76 V162.91 H0 Z M7.76,162.91 V170.67 H15.52 V162.91 H7.76 Z M23.27,162.91 V170.67 H31.03 V162.91 H23.27 Z M31.03,162.91 V170.67 H38.79 V162.91 H31.03 Z M54.30,162.91 V170.67 H62.06 V162.91 H54.30 Z M62.06,162.91 V170.67 H69.82 V162.91 H62.06 Z M77.58,162.91 V170.67 H85.33 V162.91 H77.58 Z M85.33,162.91 V170.67 H93.09 V162.91 H85.33 Z M100.85,162.91 V170.67 H108.61 V162.91 H100.85 Z M116.36,162.91 V170.67 H124.12 V162.91 H116.36 Z M124.12,162.91 V170.67 H131.88 V162.91 H124.12 Z M131.88,162.91 V170.67 H139.64 V162.91 H131.88 Z M162.91,162.91 V170.67 H170.67 V162.91 H162.91 Z M178.42,162.91 V170.67 H186.18 V162.91 H178.42 Z M186.18,162.91 V170.67 H193.94 V162.91 H186.18 Z M201.70,162.91 V170.67 H209.45 V162.91 H201.70 Z M209.45,162.91 V170.67 H217.21 V162.91 H209.45 Z M232.73,162.91 V170.67 H240.48 V162.91 H232.73 Z M240.48,162.91 V170.67 H248.24 V162.91 H240.48 Z M248.24,162.91 V170.67 H256 V162.91 H248.24 Z M7.76,170.67 V178.42 H15.52 V170.67 H7.76 Z M15.52,170.67 V178.42 H23.27 V170.67 H15.52 Z M46.55,170.67 V178.42 H54.30 V170.67 H46.55 Z M62.06,170.67 V178.42 H69.82 V170.67 H62.06 Z M77.58,170.67 V178.42 H85.33 V170.67 H77.58 Z M100.85,170.67 V178.42 H108.61 V170.67 H100.85 Z M116.36,170.67 V178.42 H124.12 V170.67 H116.36 Z M124.12,170.67 V178.42 H131.88 V170.67 H124.12 Z M147.39,170.67 V178.42 H155.15 V170.67 H147.39 Z M155.15,170.67 V178.42 H162.91 V170.67 H155.15 Z M170.67,170.67 V178.42 H178.42 V170.67 H170.67 Z M186.18,170.67 V178.42 H193.94 V170.67 H186.18 Z M201.70,170.67 V178.42 H209.45 V170.67 H201.70 Z M224.97,170.67 V178.42 H232.73 V170.67 H224.97 Z M248.24,170.67 V178.42 H256 V170.67 H248.24 Z M0,178.42 V186.18 H7.76 V178.42 H0 Z M15.52,178.42 V186.18 H23.27 V178.42 H15.52 Z M54.30,178.42 V186.18 H62.06 V178.42 H54.30 Z M69.82,178.42 V186.18 H77.58 V178.42 H69.82 Z M77.58,178.42 V186.18 H85.33 V178.42 H77.58 Z M93.09,178.42 V186.18 H100.85 V178.42 H93.09 Z M124.12,178.42 V186.18 H131.88 V178.42 H124.12 Z M131.88,178.42 V186.18 H139.64 V178.42 H131.88 Z M139.64,178.42 V186.18 H147.39 V178.42 H139.64 Z M170.67,178.42 V186.18 H178.42 V178.42 H170.67 Z M186.18,178.42 V186.18 H193.94 V178.42 H186.18 Z M193.94,178.42 V186.18 H201.70 V178.42 H193.94 Z M224.97,178.42 V186.18 H232.73 V178.42 H224.97 Z M240.48,178.42 V186.18 H248.24 V178.42 H240.48 Z M7.76,186.18 V193.94 H15.52 V186.18 H7.76 Z M15.52,186.18 V193.94 H23.27 V186.18 H15.52 Z M23.27,186.18 V193.94 H31.03 V186.18 H23.27 Z M31.03,186.18 V193.94 H38.79 V186.18 H31.03 Z M46.55,186.18 V193.94 H54.30 V186.18 H46.55 Z M62.06,186.18 V193.94 H69.82 V186.18 H62.06 Z M85.33,186.18 V193.94 H93.09 V186.18 H85.33 Z M93.09,186.18 V193.94 H100.85 V186.18 H93.09 Z M116.36,186.18 V193.94 H124.12 V186.18 H116.36 Z M124.12,186.18 V193.94 H131.88 V186.18 H124.12 Z M131.88,186.18 V193.94 H139.64 V186.18 H131.88 Z M139.64,186.18 V193.94 H147.39 V186.18 H139.64 Z M147.39,186.18 V193.94 H155.15 V186.18 H147.39 Z M155.15,186.18 V193.94 H162.91 V186.18 H155.15 Z M162.91,186.18 V193.94 H170.67 V186.18 H162.91 Z M170.67,186.18 V193.94 H178.42 V186.18 H170.67 Z M178.42,186.18 V193.94 H186.18 V186.18 H178.42 Z M186.18,186.18 V193.94 H193.94 V186.18 H186.18 Z M193.94,186.18 V193.94 H201.70 V186.18 H193.94 Z M201.70,186.18 V193.94 H209.45 V186.18 H201.70 Z M209.45,186.18 V193.94 H217.21 V186.18 H209.45 Z M217.21,186.18 V193.94 H224.97 V186.18 H217.21 Z M240.48,186.18 V193.94 H248.24 V186.18 H240.48 Z M248.24,186.18 V193.94 H256 V186.18 H248.24 Z M62.06,193.94 V201.70 H69.82 V193.94 H62.06 Z M69.82,193.94 V201.70 H77.58 V193.94 H69.82 Z M85.33,193.94 V201.70 H93.09 V193.94 H85.33 Z M108.61,193.94 V201.70 H116.36 V193.94 H108.61 Z M116.36,193.94 V201.70 H124.12 V193.94 H116.36 Z M139.64,193.94 V201.70 H147.39 V193.94 H139.64 Z M170.67,193.94 V201.70 H178.42 V193.94 H170.67 Z M178.42,193.94 V201.70 H186.18 V193.94 H178.42 Z M186.18,193.94 V201.70 H193.94 V193.94 H186.18 Z M217.21,193.94 V201.70 H224.97 V193.94 H217.21 Z M232.73,193.94 V201.70 H240.48 V193.94 H232.73 Z M248.24,193.94 V201.70 H256 V193.94 H248.24 Z M0,201.70 V209.45 H7.76 V201.70 H0 Z M7.76,201.70 V209.45 H15.52 V201.70 H7.76 Z M15.52,201.70 V209.45 H23.27 V201.70 H15.52 Z M23.27,201.70 V209.45 H31.03 V201.70 H23.27 Z M31.03,201.70 V209.45 H38.79 V201.70 H31.03 Z M38.79,201.70 V209.45 H46.55 V201.70 H38.79 Z M46.55,201.70 V209.45 H54.30 V201.70 H46.55 Z M62.06,201.70 V209.45 H69.82 V201.70 H62.06 Z M77.58,201.70 V209.45 H85.33 V201.70 H77.58 Z M93.09,201.70 V209.45 H100.85 V201.70 H93.09 Z M108.61,201.70 V209.45 H116.36 V201.70 H108.61 Z M116.36,201.70 V209.45 H124.12 V201.70 H116.36 Z M124.12,201.70 V209.45 H131.88 V201.70 H124.12 Z M155.15,201.70 V209.45 H162.91 V201.70 H155.15 Z M178.42,201.70 V209.45 H186.18 V201.70 H178.42 Z M186.18,201.70 V209.45 H193.94 V201.70 H186.18 Z M201.70,201.70 V209.45 H209.45 V201.70 H201.70 Z M217.21,201.70 V209.45 H224.97 V201.70 H217.21 Z M224.97,201.70 V209.45 H232.73 V201.70 H224.97 Z M232.73,201.70 V209.45 H240.48 V201.70 H232.73 Z M240.48,201.70 V209.45 H248.24 V201.70 H240.48 Z M0,209.45 V217.21 H7.76 V209.45 H0 Z M46.55,209.45 V217.21 H54.30 V209.45 H46.55 Z M62.06,209.45 V217.21 H69.82 V209.45 H62.06 Z M100.85,209.45 V217.21 H108.61 V209.45 H100.85 Z M108.61,209.45 V217.21 H116.36 V209.45 H108.61 Z M139.64,209.45 V217.21 H147.39 V209.45 H139.64 Z M147.39,209.45 V217.21 H155.15 V209.45 H147.39 Z M162.91,209.45 V217.21 H170.67 V209.45 H162.91 Z M170.67,209.45 V217.21 H178.42 V209.45 H170.67 Z M178.42,209.45 V217.21 H186.18 V209.45 H178.42 Z M186.18,209.45 V217.21 H193.94 V209.45 H186.18 Z M217.21,209.45 V217.21 H224.97 V209.45 H217.21 Z M224.97,209.45 V217.21 H232.73 V209.45 H224.97 Z M232.73,209.45 V217.21 H240.48 V209.45 H232.73 Z M0,217.21 V224.97 H7.76 V217.21 H0 Z M15.52,217.21 V224.97 H23.27 V217.21 H15.52 Z M23.27,217.21 V224.97 H31.03 V217.21 H23.27 Z M31.03,217.21 V224.97 H38.79 V217.21 H31.03 Z M46.55,217.21 V224.97 H54.30 V217.21 H46.55 Z M62.06,217.21 V224.97 H69.82 V217.21 H62.06 Z M93.09,217.21 V224.97 H100.85 V217.21 H93.09 Z M108.61,217.21 V224.97 H116.36 V217.21 H108.61 Z M124.12,217.21 V224.97 H131.88 V217.21 H124.12 Z M155.15,217.21 V224.97 H162.91 V217.21 H155.15 Z M178.42,217.21 V224.97 H186.18 V217.21 H178.42 Z M186.18,217.21 V224.97 H193.94 V217.21 H186.18 Z M193.94,217.21 V224.97 H201.70 V217.21 H193.94 Z M201.70,217.21 V224.97 H209.45 V217.21 H201.70 Z M209.45,217.21 V224.97 H217.21 V217.21 H209.45 Z M217.21,217.21 V224.97 H224.97 V217.21 H217.21 Z M224.97,217.21 V224.97 H232.73 V217.21 H224.97 Z M232.73,217.21 V224.97 H240.48 V217.21 H232.73 Z M0,224.97 V232.73 H7.76 V224.97 H0 Z M15.52,224.97 V232.73 H23.27 V224.97 H15.52 Z M23.27,224.97 V232.73 H31.03 V224.97 H23.27 Z M31.03,224.97 V232.73 H38.79 V224.97 H31.03 Z M46.55,224.97 V232.73 H54.30 V224.97 H46.55 Z M62.06,224.97 V232.73 H69.82 V224.97 H62.06 Z M69.82,224.97 V232.73 H77.58 V224.97 H69.82 Z M77.58,224.97 V232.73 H85.33 V224.97 H77.58 Z M93.09,224.97 V232.73 H100.85 V224.97 H93.09 Z M131.88,224.97 V232.73 H139.64 V224.97 H131.88 Z M139.64,224.97 V232.73 H147.39 V224.97 H139.64 Z M155.15,224.97 V232.73 H162.91 V224.97 H155.15 Z M170.67,224.97 V232.73 H178.42 V224.97 H170.67 Z M201.70,224.97 V232.73 H209.45 V224.97 H201.70 Z M217.21,224.97 V232.73 H224.97 V224.97 H217.21 Z M224.97,224.97 V232.73 H232.73 V224.97 H224.97 Z M248.24,224.97 V232.73 H256 V224.97 H248.24 Z M0,232.73 V240.48 H7.76 V232.73 H0 Z M15.52,232.73 V240.48 H23.27 V232.73 H15.52 Z M23.27,232.73 V240.48 H31.03 V232.73 H23.27 Z M31.03,232.73 V240.48 H38.79 V232.73 H31.03 Z M46.55,232.73 V240.48 H54.30 V232.73 H46.55 Z M69.82,232.73 V240.48 H77.58 V232.73 H69.82 Z M100.85,232.73 V240.48 H108.61 V232.73 H100.85 Z M108.61,232.73 V240.48 H116.36 V232.73 H108.61 Z M131.88,232.73 V240.48 H139.64 V232.73 H131.88 Z M193.94,232.73 V240.48 H201.70 V232.73 H193.94 Z M224.97,232.73 V240.48 H232.73 V232.73 H224.97 Z M0,240.48 V248.24 H7.76 V240.48 H0 Z M46.55,240.48 V248.24 H54.30 V240.48 H46.55 Z M77.58,240.48 V248.24 H85.33 V240.48 H77.58 Z M85.33,240.48 V248.24 H93.09 V240.48 H85.33 Z M93.09,240.48 V248.24 H100.85 V240.48 H93.09 Z M108.61,240.48 V248.24 H116.36 V240.48 H108.61 Z M124.12,240.48 V248.24 H131.88 V240.48 H124.12 Z M131.88,240.48 V248.24 H139.64 V240.48 H131.88 Z M139.64,240.48 V248.24 H147.39 V240.48 H139.64 Z M147.39,240.48 V248.24 H155.15 V240.48 H147.39 Z M155.15,240.48 V248.24 H162.91 V240.48 H155.15 Z M162.91,240.48 V248.24 H170.67 V240.48 H162.91 Z M170.67,240.48 V248.24 H178.42 V240.48 H170.67 Z M186.18,240.48 V248.24 H193.94 V240.48 H186.18 Z M193.94,240.48 V248.24 H201.70 V240.48 H193.94 Z M201.70,240.48 V248.24 H209.45 V240.48 H201.70 Z M217.21,240.48 V248.24 H224.97 V240.48 H217.21 Z M224.97,240.48 V248.24 H232.73 V240.48 H224.97 Z M0,248.24 V256 H7.76 V248.24 H0 Z M7.76,248.24 V256 H15.52 V248.24 H7.76 Z M15.52,248.24 V256 H23.27 V248.24 H15.52 Z M23.27,248.24 V256 H31.03 V248.24 H23.27 Z M31.03,248.24 V256 H38.79 V248.24 H31.03 Z M38.79,248.24 V256 H46.55 V248.24 H38.79 Z M46.55,248.24 V256 H54.30 V248.24 H46.55 Z M62.06,248.24 V256 H69.82 V248.24 H62.06 Z M93.09,248.24 V256 H100.85 V248.24 H93.09 Z M178.42,248.24 V256 H186.18 V248.24 H178.42 Z M209.45,248.24 V256 H217.21 V248.24 H209.45 Z M217.21,248.24 V256 H224.97 V248.24 H217.21 Z M248.24,248.24 V256 H256 V248.24 H248.24 Z " /></svg>