<svg width="19" height="18" viewBox="0 0 19 18" fill="none" xmlns="http://www.w3.org/2000/svg">
<path d="M6.24214 5.68189C5.16901 6.59373 4.77576 8.25671 5.70237 9.59081C6.56948 10.8392 7.66175 11.9313 8.9099 12.798C10.2441 13.7244 11.907 13.3311 12.8187 12.2579L12.8289 12.2626C13.9934 12.8021 15.2304 13.1718 16.5 13.3603V16L16.4989 16L16.4961 16C8.52151 16.0113 2.49148 9.91112 2.50001 2.00359V2H5.13937L5.13954 2.00117C5.328 3.27065 5.69761 4.50654 6.23714 5.67108L6.24214 5.68189ZM16.4989 18H17.5C18.0523 18 18.5 17.5523 18.5 17V12.4977C18.5 12.0021 18.137 11.5813 17.6468 11.5086L16.7926 11.3818C15.7123 11.2215 14.6605 10.9069 13.6695 10.4478L12.9166 10.0991C12.4804 9.897 11.962 10.034 11.6826 10.4253L11.3418 10.9024C11.0431 11.3206 10.4728 11.4484 10.0506 11.1552C8.99835 10.4245 8.07607 9.50243 7.34502 8.44989C7.05181 8.02774 7.17955 7.45737 7.59783 7.15866L8.07477 6.81807C8.46609 6.53861 8.60311 6.02021 8.40097 5.5839L8.05184 4.83033C7.59274 3.8394 7.27823 2.78774 7.11786 1.70749L6.99104 0.853159C6.91827 0.362959 6.49745 0 6.00188 0H1.50001C0.947726 0 0.50001 0.447715 0.50001 1V2.00143C0.490291 11.0079 7.41023 18.0129 16.4989 18Z" fill="#2E3833"/>
</svg>
